<svg width="161" height="162" viewBox="0 0 161 162" fill="none" xmlns="http://www.w3.org/2000/svg">
<path d="M29.7995 143.415C15.8715 131.228 6.07832 116.43 1.94343 98.1492C-8.93786 48.9658 27.188 2.17626 77.4596 0.217631C78.5477 0.217631 79.4182 0.217626 80.5063 0V0.435261C83.1179 2.39389 82.6826 5.223 82.6826 8.05213C82.465 31.1205 83.5531 54.4064 82.0297 77.4748C82.2473 78.9981 82.0297 80.5215 81.3768 81.8273C78.7653 84.8741 77.0243 88.7913 74.4128 92.0557C71.1484 95.7553 68.7545 95.973 65.4902 92.2733C60.0495 86.6151 55.2617 80.3039 50.2563 74.2104C46.1214 69.205 45.4686 68.9873 40.4632 73.1222C38.0693 75.0809 35.6754 77.0395 33.2816 78.9981C31.3229 80.5215 31.1053 82.2625 32.8463 84.2212C44.8157 98.5844 56.7851 112.948 68.7545 127.311C70.4955 129.487 72.019 129.27 73.5423 127.093C74.6305 125.57 75.7186 124.047 77.242 122.741C79.2006 121.218 80.9416 121.218 82.2474 123.829C83.1179 134.275 82.6826 144.939 82.6826 155.385C82.6826 159.084 80.9416 161.043 77.0243 160.608C75.2833 160.608 73.5423 160.825 72.0189 160.173C57.8732 159.302 45.4686 153.861 33.9344 146.027C32.6287 145.156 31.1053 144.068 29.7995 143.198V143.415Z" fill="#2DDD5B"/>
<path d="M80.7223 78.9926C80.7223 52.8775 80.7223 26.5448 80.7223 0.429737C118.807 -0.658392 154.933 30.2444 160.156 68.329C166.249 112.072 138.828 151.027 95.7384 159.732C88.1215 161.255 80.0694 162.343 72.2349 160.385C73.323 160.385 74.6287 160.167 75.7169 160.385C79.4165 160.82 80.7223 159.079 80.7223 155.379C80.7223 144.28 80.7223 133.181 80.7223 122.083C80.287 121.647 80.0694 121.212 80.0694 120.777C81.5928 116.859 83.9866 113.16 86.3805 109.678C100.309 89.8739 114.237 70.07 128.382 50.4837C130.776 47.2193 130.559 45.4783 127.294 43.5196C124.465 41.9963 121.854 39.82 119.242 37.8614C116.195 35.4675 114.237 36.1203 112.06 39.1671C103.791 50.9189 95.5208 62.4531 87.4687 74.2049C85.9453 76.3811 84.6395 79.6455 80.9399 78.9926H80.7223Z" fill="#1CA640"/>
<path d="M80.7232 78.9966C90.9516 64.6333 101.398 50.4877 111.408 35.9067C113.585 32.86 115.108 31.7719 118.372 34.601C122.507 38.083 126.86 40.9121 131.43 43.9589C133.171 45.2647 134.042 46.1351 132.518 48.3114C115.108 72.4678 97.9156 96.8419 80.7232 121.216C78.547 120.128 78.5469 117.952 78.5469 115.775C78.5469 104.459 77.4588 93.1423 79.6351 81.8258C80.0703 80.9553 80.5055 80.0848 80.9408 79.2142L80.7232 78.9966Z" fill="#EDEDEF"/>
<path d="M79.6356 81.6087C81.159 83.3497 80.7237 85.526 80.7237 87.4846C80.7237 98.5836 80.7237 109.682 80.7237 120.781C80.7237 121.217 80.7237 121.434 80.7237 121.87C77.8946 125.569 75.0655 129.486 71.8011 133.621C61.1374 120.781 50.6914 108.377 40.2453 95.972C36.7633 91.8371 33.4989 87.7023 30.0169 83.785C28.2759 81.8264 28.0582 80.7382 30.2345 78.9972C34.8046 75.5152 39.3748 71.5979 43.7273 67.6807C45.9036 65.722 46.9917 66.3749 48.5151 68.3335C55.0438 76.1681 61.5727 83.785 67.8838 91.8371C69.6248 94.0134 70.7129 94.4486 72.2363 91.8371C74.4125 88.3551 77.0241 85.0907 79.4179 81.8264L79.6356 81.6087Z" fill="#FEFEFE"/>
</svg>
